HIERARCHY
ROOT Hips
{
    OFFSET   0.000000   0.000000   0.000000
    CHANNELS 6 Xposition Yposition Zposition Zrotation Xrotation Yrotation
    JOINT Chest
    {
        OFFSET   0.000000   8.007230   0.000000
        CHANNELS 3 Zrotation Xrotation Yrotation
        JOINT Chest2
        {
            OFFSET   0.000000  22.077100   0.000000
            CHANNELS 3 Zrotation Xrotation Yrotation
            JOINT Neck
            {
                OFFSET   0.000000  23.255100   0.000000
                CHANNELS 3 Zrotation Xrotation Yrotation
                JOINT Head
                {
                    OFFSET   0.000000  14.370100   1.956600
                    CHANNELS 3 Zrotation Xrotation Yrotation
                    End Site
                    {
                        OFFSET   0.000000  19.566000   0.000000
                    }
                }
            }
            JOINT LeftCollar
            {
                OFFSET   3.911900  19.017000  -0.467063
                CHANNELS 3 Zrotation Xrotation Yrotation
                JOINT LeftShoulder
                {
                    OFFSET  10.383700   0.000000   0.000000
                    CHANNELS 3 Zrotation Xrotation Yrotation
                    JOINT LeftElbow
                    {
                        OFFSET  26.662100   0.001193   0.000980
                        CHANNELS 3 Zrotation Xrotation Yrotation
                        JOINT LeftWrist
                        {
                            OFFSET  28.869000  -0.000059  -0.000082
                            CHANNELS 3 Zrotation Xrotation Yrotation
                            JOINT LeftFinger0
                            {
                                OFFSET   2.044650  -2.323450   3.252850
                                CHANNELS 3 Zrotation Xrotation Yrotation
                                JOINT LeftFinger01
                                {
                                    OFFSET   3.088130   0.000000   0.000000
                                    CHANNELS 3 Zrotation Xrotation Yrotation
                                    JOINT LeftFinger02
                                    {
                                        OFFSET   2.639460   0.000000   0.000000
                                        CHANNELS 3 Zrotation Xrotation Yrotation
                                        End Site
                                        {
                                            OFFSET   2.582190   0.000000   0.000000
                                        }
                                    }
                                }
                            }
                            JOINT LeftFinger1
                            {
                                OFFSET   8.364480   0.000000   3.252850
                                CHANNELS 3 Zrotation Xrotation Yrotation
                                JOINT LeftFinger11
                                {
                                    OFFSET   4.646930   0.000000   0.000000
                                    CHANNELS 3 Zrotation Xrotation Yrotation
                                    JOINT LeftFinger12
                                    {
                                        OFFSET   2.323470   0.000000   0.000000
                                        CHANNELS 3 Zrotation Xrotation Yrotation
                                        End Site
                                        {
                                            OFFSET   2.273050   0.000000   0.000000
                                        }
                                    }
                                }
                            }
                            JOINT LeftFinger2
                            {
                                OFFSET   8.364490   0.000016   1.078090
                                CHANNELS 3 Zrotation Xrotation Yrotation
                                JOINT LeftFinger21
                                {
                                    OFFSET   5.111610   0.000000   0.000000
                                    CHANNELS 3 Zrotation Xrotation Yrotation
                                    JOINT LeftFinger22
                                    {
                                        OFFSET   2.788150   0.000016   0.000000
                                        CHANNELS 3 Zrotation Xrotation Yrotation
                                        End Site
                                        {
                                            OFFSET   2.727660   0.000000   0.000000
                                        }
                                    }
                                }
                            }
                            JOINT LeftFinger3
                            {
                                OFFSET   7.899780   0.000015  -1.078090
                                CHANNELS 3 Zrotation Xrotation Yrotation
                                JOINT LeftFinger31
                                {
                                    OFFSET   4.646930   0.000000   0.000000
                                    CHANNELS 3 Zrotation Xrotation Yrotation
                                    JOINT LeftFinger32
                                    {
                                        OFFSET   2.323470   0.000000   0.000000
                                        CHANNELS 3 Zrotation Xrotation Yrotation
                                        End Site
                                        {
                                            OFFSET   2.273050   0.000000   0.000000
                                        }
                                    }
                                }
                            }
                            JOINT LeftFinger4
                            {
                                OFFSET   7.435090   0.000000  -3.252850
                                CHANNELS 3 Zrotation Xrotation Yrotation
                                JOINT LeftFinger41
                                {
                                    OFFSET   3.717550   0.000000   0.000000
                                    CHANNELS 3 Zrotation Xrotation Yrotation
                                    JOINT LeftFinger42
                                    {
                                        OFFSET   1.858770   0.000000   0.000000
                                        CHANNELS 3 Zrotation Xrotation Yrotation
                                        End Site
                                        {
                                            OFFSET   1.818440   0.000000   0.000000
                                        }
                                    }
                                }
                            }
                        }
                    }
                }
            }
            JOINT RightCollar
            {
                OFFSET  -3.911910  19.017000  -0.467062
                CHANNELS 3 Zrotation Xrotation Yrotation
                JOINT RightShoulder
                {
                    OFFSET -10.383700   0.000014   0.000000
                    CHANNELS 3 Zrotation Xrotation Yrotation
                    JOINT RightElbow
                    {
                        OFFSET -26.662100   0.001225   0.001091
                        CHANNELS 3 Zrotation Xrotation Yrotation
                        JOINT RightWrist
                        {
                            OFFSET -28.869000  -0.000020  -0.000085
                            CHANNELS 3 Zrotation Xrotation Yrotation
                            JOINT RightFinger0
                            {
                                OFFSET  -2.044650  -2.323490   3.252850
                                CHANNELS 3 Zrotation Xrotation Yrotation
                                JOINT RightFinger01
                                {
                                    OFFSET  -3.088130   0.000000   0.000000
                                    CHANNELS 3 Zrotation Xrotation Yrotation
                                    JOINT RightFinger02
                                    {
                                        OFFSET  -2.639460   0.000000   0.000000
                                        CHANNELS 3 Zrotation Xrotation Yrotation
                                        End Site
                                        {
                                            OFFSET  -2.582190   0.000000   0.000000
                                        }
                                    }
                                }
                            }
                            JOINT RightFinger1
                            {
                                OFFSET  -8.364480   0.000000   3.252850
                                CHANNELS 3 Zrotation Xrotation Yrotation
                                JOINT RightFinger11
                                {
                                    OFFSET  -4.646930   0.000000   0.000000
                                    CHANNELS 3 Zrotation Xrotation Yrotation
                                    JOINT RightFinger12
                                    {
                                        OFFSET  -2.323470   0.000000   0.000000
                                        CHANNELS 3 Zrotation Xrotation Yrotation
                                        End Site
                                        {
                                            OFFSET  -2.273050   0.000000   0.000000
                                        }
                                    }
                                }
                            }
                            JOINT RightFinger2
                            {
                                OFFSET  -8.364480   0.000000   1.078090
                                CHANNELS 3 Zrotation Xrotation Yrotation
                                JOINT RightFinger21
                                {
                                    OFFSET  -5.111620   0.000000   0.000000
                                    CHANNELS 3 Zrotation Xrotation Yrotation
                                    JOINT RightFinger22
                                    {
                                        OFFSET  -2.788160   0.000000   0.000000
                                        CHANNELS 3 Zrotation Xrotation Yrotation
                                        End Site
                                        {
                                            OFFSET  -2.727660   0.000000   0.000000
                                        }
                                    }
                                }
                            }
                            JOINT RightFinger3
                            {
                                OFFSET  -7.899780   0.000000  -1.078090
                                CHANNELS 3 Zrotation Xrotation Yrotation
                                JOINT RightFinger31
                                {
                                    OFFSET  -4.646930   0.000000   0.000000
                                    CHANNELS 3 Zrotation Xrotation Yrotation
                                    JOINT RightFinger32
                                    {
                                        OFFSET  -2.323470   0.000000   0.000000
                                        CHANNELS 3 Zrotation Xrotation Yrotation
                                        End Site
                                        {
                                            OFFSET  -2.273050   0.000000   0.000000
                                        }
                                    }
                                }
                            }
                            JOINT RightFinger4
                            {
                                OFFSET  -7.435090   0.000000  -3.252850
                                CHANNELS 3 Zrotation Xrotation Yrotation
                                JOINT RightFinger41
                                {
                                    OFFSET  -3.717550   0.000000   0.000000
                                    CHANNELS 3 Zrotation Xrotation Yrotation
                                    JOINT RightFinger42
                                    {
                                        OFFSET  -1.858760   0.000000   0.000000
                                        CHANNELS 3 Zrotation Xrotation Yrotation
                                        End Site
                                        {
                                            OFFSET  -1.818440   0.000000   0.000000
                                        }
                                    }
                                }
                            }
                        }
                    }
                }
            }
        }
    }
    JOINT LeftHip
    {
        OFFSET   9.783030   0.000000   0.000000
        CHANNELS 3 Zrotation Xrotation Yrotation
        JOINT LeftKnee
        {
            OFFSET   0.000063 -41.789100   0.000608
            CHANNELS 3 Zrotation Xrotation Yrotation
            JOINT LeftAnkle
            {
                OFFSET   0.000048 -41.133200  -0.000184
                CHANNELS 3 Zrotation Xrotation Yrotation
                JOINT LeftToe
                {
                    OFFSET   0.000000  -6.358960  14.674500
                    CHANNELS 3 Zrotation Xrotation Yrotation
                    End Site
                    {
                        OFFSET   0.000000   0.000000   3.913200
                    }
                }
            }
        }
    }
    JOINT RightHip
    {
        OFFSET  -9.783030   0.000000   0.000000
        CHANNELS 3 Zrotation Xrotation Yrotation
        JOINT RightKnee
        {
            OFFSET   0.000071 -41.789100   0.001239
            CHANNELS 3 Zrotation Xrotation Yrotation
            JOINT RightAnkle
            {
                OFFSET   0.000037 -41.133200  -0.000166
                CHANNELS 3 Zrotation Xrotation Yrotation
                JOINT RightToe
                {
                    OFFSET   0.000000  -6.358960  14.674500
                    CHANNELS 3 Zrotation Xrotation Yrotation
                    End Site
                    {
                        OFFSET   0.000000   0.000000   3.913200
                    }
                }
            }
        }
    }
}
MOTION
Frames: 4
Frame Time:   0.016667
 -0.293984  89.604900  -1.951500  -3.074900  -8.408550  -4.281560   0.601015   5.834490   0.268567   1.183650  11.671400   0.478999   1.007530  -0.298777   0.007279   1.642360  -0.605208   2.960810  -7.186870  -3.416460   0.804282 -72.758200  21.020000   4.685890  -4.749250 -12.713700 -18.811400  15.529500 -17.476700   7.298350  38.615600  36.483500 -64.945300 -36.143200   0.000385   0.007379 -13.071600   0.001703   0.005065 -25.404000   6.152470 -12.716800 -21.346600   0.010220  -0.001994 -14.942600   0.003346   0.009939 -29.428500   1.414740  -2.505950 -44.189200  -0.000506  -0.006551 -29.430000   0.000920  -0.003854 -28.609600   0.281586  -0.527597 -37.620600  -0.007302  -0.005464 -25.055300  -0.006119  -0.011175 -34.755000   0.302625  -0.425763 -52.134300  -0.003591  -0.000998 -34.721500   0.006484  -0.009915  13.113300  -0.875613   9.426710  65.214100  18.628600  -4.257710   1.766390 -12.751400  13.578300 -12.267100  -6.312910   3.338200 -39.472300  34.105900  66.339600  31.392300   0.000737  -0.004747  10.696200   0.000302  -0.002386  29.054200   6.412350  11.366800  24.294200   0.008833  -0.002201  17.006000   0.003334  -0.001733  30.061900   3.906510   6.713290  45.436500   0.004299   0.003790  30.260700  -0.004367  -0.012260  28.043700   2.732610   5.114270  33.148900  -0.005389  -0.000619  22.077200  -0.003246   0.009937  34.604500   0.329872   0.478078  51.908700  -0.000537   0.009916  34.571200  -0.001124  -0.001251   2.069660   9.988900   3.650570   1.590390   0.049229  12.652700  -1.453350  -2.838750   3.314890   0.000000   0.000000  -0.000000   4.874330   6.791080  -2.194940  -1.689700   4.798350  -7.944850  -1.232910  -4.578690  -0.432055   0.000000   0.000000   0.000000
 -0.294039  89.604900  -1.944240  -3.079990  -8.418010  -4.281490   0.609066   5.837250   0.276382   1.199070  11.677100   0.493876   1.002490  -0.306457   0.007253   1.637800  -0.620794   2.930640  -7.187390  -3.430220   0.794585 -72.794200  21.080700   4.680630  -4.722980 -12.665700 -18.809200  15.513400 -17.453100   7.300190  38.553100  36.415600 -64.890100 -36.162800   0.000383   0.007363 -13.081400   0.001707   0.005073 -25.398800   6.146690 -12.708200 -21.341400   0.010231  -0.002015 -14.939000   0.003339   0.009944 -29.414800   1.406190  -2.492240 -44.168100  -0.000517  -0.006516 -29.415900   0.000933  -0.003833 -28.609700   0.281585  -0.521904 -37.593700  -0.007338  -0.005438 -25.037400  -0.006116  -0.011163 -34.737700   0.302731  -0.431754 -52.108400  -0.003592  -0.000972 -34.704400   0.006503  -0.009945  13.172900  -0.970003   9.494930  65.121500  18.642300  -4.256910   1.766430 -12.816600  13.504400 -12.217000  -6.227500   3.301350 -39.462400  34.102700  66.321800  31.406700   0.000728  -0.004730  10.703400   0.000276  -0.002384  29.019600   6.382420  11.334700  24.261700   0.008829  -0.002200  16.983300   0.003334  -0.001732  30.035000   3.883680   6.684380  45.392500   0.004288   0.003796  30.231400  -0.004365  -0.012267  28.036800   2.719860   5.092470  33.091100  -0.005409  -0.000659  22.038700  -0.003247   0.009934  34.570900   0.337492   0.489782  51.858400  -0.000542   0.009934  34.537700  -0.001114  -0.001240   2.074840   9.991830   3.648640   1.584010   0.076078  12.652500  -1.455250  -2.862320   3.316370   0.000000   0.000000  -0.000000   4.879790   6.801210  -2.194920  -1.693580   4.810700  -7.951100  -1.233090  -4.586000  -0.431520   0.000000   0.000000   0.000000
 -0.294093  89.604800  -1.930930  -3.089390  -8.439130  -4.281540   0.622584   5.845460   0.291588   1.224720  11.693700   0.523023   0.994213  -0.320235   0.007205   1.629540  -0.648763   2.876180  -7.189160  -3.452690   0.763204 -72.867400  21.207000   4.671060  -4.671010 -12.617000 -18.815800  15.499400 -17.429200   7.308870  38.496000  36.338500 -64.844000 -36.182400   0.000373   0.007331 -13.091200   0.001712   0.005092 -25.393600   6.140920 -12.699600 -21.336300   0.010255  -0.002061 -14.935400   0.003321   0.009956 -29.401100   1.397650  -2.478530 -44.147000  -0.000546  -0.006439 -29.401900   0.000967  -0.003786 -28.609700   0.281585  -0.516211 -37.555800  -0.007424  -0.005382 -25.012200  -0.006108  -0.011135 -34.720000   0.303473  -0.437925 -52.081800  -0.003595  -0.000915 -34.686600   0.006547  -0.010015  13.266000  -1.140750   9.596360  64.978100  18.711600  -4.250660   1.766350 -12.936100  13.325600 -12.150200  -6.094040   3.230540 -39.452500  34.099400  66.304000  31.429400   0.000707  -0.004697  10.714700   0.000213  -0.002375  28.956700   6.349290  11.302500  24.206400   0.008821  -0.002197  16.944500   0.003335  -0.001728  29.987400   3.860840   6.655470  45.318000   0.004256   0.003813  30.181800  -0.004358  -0.012288  28.025700   2.707110   5.070670  33.001800  -0.005461  -0.000745  21.979200  -0.003250   0.009929  34.517100   0.349682   0.508512  51.778000  -0.000555   0.009977  34.484200  -0.001088  -0.001212   2.083610  10.012200   3.645060   1.575550   0.102926  12.652100  -1.457020  -2.885870   3.320270   0.000000   0.000000  -0.000000   4.889850   6.827310  -2.194980  -1.700950   4.822910  -7.968110  -1.233050  -4.597880  -0.427753  -0.000000   0.000000  -0.000000
 -0.291376  89.604700  -1.917610  -3.098200  -8.466090  -4.282290   0.634081   5.858160   0.308293   1.246130  11.719300   0.555380   0.987586  -0.332282   0.007145   1.621190  -0.673251   2.821720  -7.192540  -3.468490   0.705196 -72.952800  21.364000   4.661470  -4.610010 -12.634600 -18.834100  15.518700 -17.466900   7.327860  38.495500  36.323100 -64.860300 -36.177700   0.000351   0.007295 -13.088900   0.001708   0.005118 -25.401600   6.155840 -12.726700 -21.345500   0.010286  -0.002127 -14.941800   0.003296   0.009973 -29.400900   1.407800  -2.496590 -44.147700  -0.000595  -0.006329 -29.402400   0.001021  -0.003719 -28.608900   0.292618  -0.536443 -37.543500  -0.007551  -0.005304 -25.004000  -0.006095  -0.011096 -34.719700   0.305456  -0.438045 -52.081300  -0.003599  -0.000834 -34.686200   0.006612  -0.010118  13.331800  -1.307880   9.660690  64.867700  18.864300  -4.179910   1.767250 -13.063100  13.062800 -12.142700  -6.006770   3.153470 -39.427000  34.087000  66.346100  31.439500   0.000678  -0.004658  10.719700   0.000115  -0.002354  28.897500   6.345850  11.319900  24.158700   0.008810  -0.002187  16.911200   0.003337  -0.001719  29.945800   3.864120   6.669460  45.256900   0.004202   0.003842  30.141100  -0.004344  -0.012327  28.016700   2.719100   5.094480  32.944300  -0.005546  -0.000862  21.940900  -0.003258   0.009920  34.470200   0.360341   0.524912  51.707800  -0.000572   0.010043  34.437400  -0.001046  -0.001168   2.090080  10.065700   3.640300   1.568650   0.072462  12.651800  -1.451910  -2.880700   3.326590   0.000000   0.000000   0.000000   4.901270   6.867340  -2.200620  -1.708950   4.819470  -7.996710  -1.229660  -4.606470  -0.404749   0.000000   0.000000   0.000000
